PathFileType	3	(X/Y/Z)	D:\minhoCalibration\240510\subject2_KPNP\preferred\preferred13.trc
DataRate	CameraRate	NumFrames	NumMarkers	Units	OrigDataRate	OrigDataStartFrame	OrigNumFrames
200.0	200.0	15	10	mm	200.0	544	213	
Frame#	Time	Left_Ankle_Outer1			Left_Ankle_Inner1			Left_Knee_Outer1			Left_Knee_Inner1			Left_Wrist1			Right_Wrist1			Right_Knee_Inner1			Right_Knee_Outer1			Right_Ankle_Inner1			Right_Ankle_Outer1			
		X1	Y1	Z1	X2	Y2	Z2	X3	Y3	Z3	X4	Y4	Z4	X5	Y5	Z5	X6	Y6	Z6	X7	Y7	Z7	X8	Y8	Z8	X9	Y9	Z9	X10	Y10	Z10	
544	2.71	-678.65918	106.36809	-709.80109	-669.54156	111.71549	-652.85297	-520.46161	518.14844	-784.89032	-517.90253	502.7861	-688.93164	-585.28717	951.06042	-843.53827	-618.52686	1152.1379	-561.3028	-400.08066	850.12427	-236.68776	-441.50562	929.40002	-208.05064	-571.63489	579.77026	34.512428	-602.07849	654.93066	92.944252
545	2.715	-679.01465	105.5771	-709.4707	-669.53992	110.2207	-653.61389	-520.65283	516.88544	-784.47296	-518.44885	501.89395	-688.51746	-583.64441	950.82391	-844.83923	-620.4425	1149.8043	-561.17719	-403.43759	843.92438	-237.62556	-447.14267	921.69751	-207.5087	-576.61786	565.92242	21.113329	-611.24078	639.2005	82.410965
546	2.72	-679.26404	104.6777	-709.22473	-669.89105	109.19574	-653.4776	-520.7771	515.63123	-783.92023	-519.10284	501.07306	-687.99811	-581.79163	951.13538	-845.3576	-622.29242	1147.4412	-560.89587	-407.08356	837.69025	-238.64304	-452.75162	914.00549	-207.83328	-583.74457	552.04846	9.6833258	-620.44952	623.63361	71.745445
547	2.725	-679.49634	103.71258	-709.01538	-670.64594	107.94132	-653.32574	-520.48505	514.71661	-783.62347	-519.79736	500.28284	-687.39539	-579.92261	951.31488	-846.28052	-624.36548	1144.9426	-560.66949	-410.89877	831.38135	-239.77402	-458.70599	906.13184	-208.15498	-590.32593	538.66522	-2.3540611	-629.6994	608.53412	61.45002
548	2.73	-679.72662	102.94587	-708.8866	-670.7276	107.07732	-653.45117	-520.22858	513.69189	-783.14575	-520.55139	499.5932	-686.80786	-577.93896	951.60516	-847.20276	-626.61285	1142.36	-560.44904	-414.96701	824.90778	-241.10167	-464.85342	898.21008	-208.62959	-597.93555	524.4491	-14.154078	-638.37732	593.19067	50.174309
549	2.735	-680.00665	102.03989	-708.89496	-671.24255	106.19684	-653.21375	-519.87659	512.84686	-782.68219	-521.31793	498.95261	-686.26685	-575.8631	951.93561	-848.013	-629.04736	1139.7156	-560.28912	-419.21933	818.34247	-242.41971	-471.2934	890.21387	-209.16701	-604.94922	510.76495	-26.383949	-646.65558	577.93903	38.372162
550	2.74	-680.15118	101.16708	-709.00873	-671.6571	105.39548	-653.31049	-519.51398	511.95645	-782.25238	-522.08936	498.32556	-685.74243	-573.71423	952.28168	-848.76044	-631.63782	1137.1075	-560.29822	-423.71524	811.7309	-243.78531	-477.79898	882.12549	-209.98618	-613.91992	497.43588	-36.504185	-654.98987	563.0517	26.715412
551	2.745	-680.34668	100.41045	-709.24017	-672.68384	105.26171	-652.04181	-519.1059	511.28482	-781.78333	-522.83472	497.77072	-685.28564	-571.3703	952.68628	-849.57617	-634.29871	1134.5028	-560.4071	-428.47342	804.98572	-245.33852	-484.41928	873.84906	-210.97365	-618.26489	484.49911	-51.585602	-663.24219	548.37384	14.699049
552	2.75	-680.49908	99.591614	-709.58252	-672.47546	103.53218	-654.16724	-518.73962	510.62537	-781.18005	-523.55835	497.21512	-684.8457	-569.11127	953.05157	-850.19141	-636.83087	1131.6947	-560.63953	-433.28268	798.15961	-247.02368	-490.73578	865.63171	-212.41577	-626.6095	471.6088	-62.376602	-671.38202	533.82605	2.3649681
553	2.755	-680.61951	98.837288	-709.95911	-673.63794	102.59132	-654.04126	-518.3576	510.04428	-780.77405	-524.27625	496.65005	-684.47693	-566.74323	953.39331	-850.85114	-639.68256	1129.314	-561.39227	-438.45367	791.18213	-248.7688	-497.76349	857.05676	-213.4012	-632.94873	458.83401	-75.566734	-679.75909	519.66388	-9.7556849
554	2.76	-680.58057	98.063385	-710.37335	-673.66821	101.73985	-655.19958	-518.18964	509.55475	-780.03784	-525.0296	496.16211	-684.11023	-564.41553	953.74066	-851.45068	-642.28546	1126.8929	-562.0177	-443.74698	783.99023	-250.67448	-504.52893	848.49866	-214.97304	-638.96747	446.26361	-89.122345	-687.46698	505.24121	-23.083185
555	2.765	-680.69275	97.427116	-710.92163	-674.00183	101.87277	-654.79102	-517.99744	509.1319	-779.63519	-525.82971	495.68756	-683.80353	-562.06567	954.12408	-852.02301	-644.3302	1124.6078	-562.57013	-449.2106	776.73926	-252.79623	-511.09177	840.08606	-216.89136	-644.59888	433.77197	-102.94628	-695.1571	490.84088	-37.339752
556	2.77	-680.82489	96.99044	-711.48181	-674.40088	100.81924	-655.92731	-517.71161	508.73615	-779.26056	-526.6543	495.32321	-683.5553	-559.84473	954.47656	-852.57526	-647.22766	1122.3484	-563.5152	-454.8812	769.49127	-255.11169	-518.17395	831.35486	-218.69157	-649.77661	421.63409	-117.20566	-702.74792	476.8598	-51.618935
557	2.775	-680.90668	96.488571	-711.96716	-674.60785	99.957695	-656.73743	-517.4624	508.41959	-778.99518	-527.2265	495.02975	-683.39905	-557.33203	955.08441	-853.37665	-649.53918	1120.2065	-564.24445	-460.63855	762.10736	-257.65652	-524.76355	822.98492	-221.27795	-652.77612	410.10886	-133.59476	-710.74194	463.16937	-64.980148
558	2.78	-680.90594	96.207314	-712.38806	-675.55902	101.03101	-655.03198	-517.22729	508.20596	-778.85101	-528.41205	494.83121	-683.32269	-555.2821	955.43579	-853.64581	-651.9093	1118.2073	-564.93658	-466.31003	754.79633	-260.45795	-532.04608	814.38776	-223.6011	-657.46216	398.74921	-148.25269	-717.20941	449.25211	-81.688545
